# xmcd
#
# Track frame offsets:
#	150
#	19520
#	39743
#	57925
#	76024
#	98362
#	113503
#	125886
#	145186
#	161599
#	178756
#	194747
#	207804
#	222116
#	245107
#	259160
#	276240
#	295095
#	311482
#
# Disc length: 4346 seconds
#
# Revision: 1
# Processed by: cddbd v1.5.1PL2 Copyright (c) Steve Scherf et al.
# Submitted via: audiograbber 1.83.01
#
DISCID=1410f813
DTITLE=Various Artist - Country Radio March 2000
DYEAR=2000
DGENRE=Country
TTITLE0=Dixie Chicks - Goodby Earl
TTITLE1=Alan Jackson - Blues Man, The
TTITLE2=Clay Daviscon - Unconditional
TTITLE3=Clay Walker - Chain Of Love, The
TTITLE4=Paul Brandt - Sycamore Tree, The
TTITLE5=Chad Brock - Yes!
TTITLE6=Blackhawk - I Need You All The Time
TTITLE7=Jason Sellers - Can't Help Calling Your Name
TTITLE8=Lila McCann - Kiss Me Now
TTITLE9=Julian Austin - Take The Money And Run
TTITLE10=Tamara Walker - Asking Too Much
TTITLE11=Cad Austin - All My Dreams
TTITLE12=Jack Ingram - Work This Out
TTITLE13=Don Neilson - Living Proof
TTITLE14=Trini Triggs - Wreckin' Crew, The
TTITLE15=Coley McCabe - Grow Young With You
TTITLE16=Keith Urban - Your Everything
TTITLE17=Michelle Wright - I Surrender
TTITLE18=Stephanie Beaumont - You And Me And Love
EXTD=
EXTT0=
EXTT1=
EXTT2=
EXTT3=
EXTT4=
EXTT5=
EXTT6=
EXTT7=
EXTT8=
EXTT9=
EXTT10=
EXTT11=
EXTT12=
EXTT13=
EXTT14=
EXTT15=
EXTT16=
EXTT17=
EXTT18=
PLAYORDER=
